<svg xmlns="http://www.w3.org/2000/svg" width="15.195" height="12.753" viewBox="0 0 15.195 12.753"><defs><style>.a{fill:#ffffff;}</style></defs><path class="a" d="M14.788,69.9H.407A.407.407,0,0,1,0,69.492V68.407A.407.407,0,0,1,.407,68H14.788a.407.407,0,0,1,.407.407v1.085A.407.407,0,0,1,14.788,69.9Zm0,5.427H.407A.407.407,0,0,1,0,74.919V73.834a.407.407,0,0,1,.407-.407H14.788a.407.407,0,0,1,.407.407v1.085A.407.407,0,0,1,14.788,75.326Zm0,5.427H.407A.407.407,0,0,1,0,80.346V79.26a.407.407,0,0,1,.407-.407H14.788a.407.407,0,0,1,.407.407v1.085A.407.407,0,0,1,14.788,80.753Z" transform="translate(0 -68)"/></svg>